<?xml version="1.0" standalone="no"?>
<!DOCTYPE svg PUBLIC "-//W3C//DTD SVG 20010904//EN"
 "http://www.w3.org/TR/2001/REC-SVG-20010904/DTD/svg10.dtd">
<svg version="1.0" xmlns="http://www.w3.org/2000/svg"
 width="1600.000000pt" height="1600.000000pt" viewBox="0 0 1600.000000 1600.000000"
 preserveAspectRatio="xMidYMid meet">
<metadata>
Created by potrace 1.11, written by Peter Selinger 2001-2013
</metadata>
<g transform="translate(0.000000,1600.000000) scale(0.100000,-0.100000)"
fill="#000000" stroke="none">
<path d="M6537 13574 c-1 -1 -20 -4 -42 -7 -145 -17 -338 -94 -489 -194 -92
-61 -191 -157 -1081 -1047 -960 -960 -1017 -1019 -1086 -1121 -100 -146 -175
-354 -195 -535 -9 -84 -10 -742 -1 -840 24 -262 145 -524 332 -719 130 -135
1909 -1909 1940 -1934 111 -89 292 -182 416 -217 186 -50 133 -49 1549 -49
l1325 -1 455 -455 454 -455 -454 -455 -455 -455 -1325 0 -1325 0 -575 575
c-316 316 -578 575 -581 575 -4 0 -389 -382 -856 -849 l-850 -850 801 -799
c482 -481 827 -817 866 -844 117 -82 203 -126 329 -168 197 -66 81 -63 2151
-63 1031 0 1915 3 1963 7 212 17 432 103 615 241 98 73 1975 1947 2054 2050
130 169 217 378 245 588 10 71 10 817 0 892 -25 203 -100 390 -227 567 -58 82
-1994 2019 -2085 2086 -82 61 -239 141 -345 176 -182 60 -142 58 -1582 60
-724 0 -1319 3 -1322 6 -50 43 -896 896 -896 903 0 6 201 212 448 458 l447
449 1025 0 1025 0 577 -577 578 -578 853 853 852 852 -805 804 c-837 835 -857
854 -1026 939 -102 53 -234 98 -328 113 -21 3 -48 8 -60 11 -19 5 -3303 12
-3309 7z"/>
</g>
</svg>
